<svg width="32" height="32" viewBox="0 0 32 32" fill="none" xmlns="http://www.w3.org/2000/svg">
<path d="M29 21H28V9C28 8.20435 27.6839 7.44129 27.1213 6.87868C26.5587 6.31607 25.7956 6 25 6H7C6.20435 6 5.44129 6.31607 4.87868 6.87868C4.31607 7.44129 4 8.20435 4 9V21H3C2.73478 21 2.48043 21.1054 2.29289 21.2929C2.10536 21.4804 2 21.7348 2 22V24C2 24.7956 2.31607 25.5587 2.87868 26.1213C3.44129 26.6839 4.20435 27 5 27H27C27.7956 27 28.5587 26.6839 29.1213 26.1213C29.6839 25.5587 30 24.7956 30 24V22C30 21.7348 29.8946 21.4804 29.7071 21.2929C29.5196 21.1054 29.2652 21 29 21ZM6 9C6 8.73478 6.10536 8.48043 6.29289 8.29289C6.48043 8.10536 6.73478 8 7 8H25C25.2652 8 25.5196 8.10536 25.7071 8.29289C25.8946 8.48043 26 8.73478 26 9V21H6V9ZM28 24C28 24.2652 27.8946 24.5196 27.7071 24.7071C27.5196 24.8946 27.2652 25 27 25H5C4.73478 25 4.48043 24.8946 4.29289 24.7071C4.10536 24.5196 4 24.2652 4 24V23H28V24Z" fill="black"/>
<path d="M14.08 10.66L11.32 15.976V19H9.952V15.976L7.18 10.66H8.704L10.636 14.752L12.568 10.66H14.08ZM14.7096 14.812C14.7096 13.996 14.8976 13.264 15.2736 12.616C15.6576 11.968 16.1736 11.464 16.8216 11.104C17.4776 10.736 18.1936 10.552 18.9696 10.552C19.8576 10.552 20.6456 10.772 21.3336 11.212C22.0296 11.644 22.5336 12.26 22.8456 13.06H21.2016C20.9856 12.62 20.6856 12.292 20.3016 12.076C19.9176 11.86 19.4736 11.752 18.9696 11.752C18.4176 11.752 17.9256 11.876 17.4936 12.124C17.0616 12.372 16.7216 12.728 16.4736 13.192C16.2336 13.656 16.1136 14.196 16.1136 14.812C16.1136 15.428 16.2336 15.968 16.4736 16.432C16.7216 16.896 17.0616 17.256 17.4936 17.512C17.9256 17.76 18.4176 17.884 18.9696 17.884C19.4736 17.884 19.9176 17.776 20.3016 17.56C20.6856 17.344 20.9856 17.016 21.2016 16.576H22.8456C22.5336 17.376 22.0296 17.992 21.3336 18.424C20.6456 18.856 19.8576 19.072 18.9696 19.072C18.1856 19.072 17.4696 18.892 16.8216 18.532C16.1736 18.164 15.6576 17.656 15.2736 17.008C14.8976 16.36 14.7096 15.628 14.7096 14.812Z" fill="black"/>
</svg>
